{
  "asset": {
    "generator": "glTF-Transform v4.2.1",
    "version": "2.0"
  },
  "accessors": [
    {
      "type": "VEC3",
      "componentType": 5126,
      "count": 163623,
      "max": [
        0.9887060523033142,
        0.9953728914260864,
        0.1999918818473816
      ],
      "min": [
        -0.9904425740242004,
        -1.0005884170532227,
        -0.2057061791419983
      ],
      "bufferView": 0,
      "byteOffset": 0
    },
    {
      "type": "VEC3",
      "componentType": 5126,
      "count": 163623,
      "bufferView": 0,
      "byteOffset": 12
    },
    {
      "type": "VEC2",
      "componentType": 5126,
      "count": 163623,
      "bufferView": 0,
      "byteOffset": 24
    },
    {
      "type": "SCALAR",
      "componentType": 5125,
      "count": 239778,
      "bufferView": 1,
      "byteOffset": 0
    }
  ],
  "bufferViews": [
    {
      "buffer": 0,
      "byteOffset": 0,
      "byteLength": 5235936,
      "byteStride": 32,
      "target": 34962
    },
    {
      "buffer": 0,
      "byteOffset": 5235936,
      "byteLength": 959112,
      "target": 34963
    }
  ],
  "samplers": [
    {
      "magFilter": 9729,
      "minFilter": 9987,
      "wrapS": 10497,
      "wrapT": 10497
    }
  ],
  "textures": [
    {
      "source": 1,
      "sampler": 0
    },
    {
      "source": 2,
      "sampler": 0
    },
    {
      "source": 0,
      "sampler": 0
    }
  ],
  "images": [
    {
      "mimeType": "image/png",
      "uri": "metallicRoughness_1.png"
    },
    {
      "mimeType": "image/png",
      "uri": "baseColor_1.png"
    },
    {
      "mimeType": "image/png",
      "uri": "normal_1.png"
    }
  ],
  "buffers": [
    {
      "uri": "buffer.bin",
      "byteLength": 6195048
    }
  ],
  "materials": [
    {
      "name": "Purple_Shiny_GLB",
      "doubleSided": true,
      "pbrMetallicRoughness": {
        "metallicFactor": 0.30000001192092896,
        "baseColorTexture": {
          "index": 0
        },
        "metallicRoughnessTexture": {
          "index": 2
        }
      },
      "normalTexture": {
        "index": 1
      },
      "extensions": {
        "KHR_materials_clearcoat": {
          "clearcoatFactor": 0.30000001192092896,
          "clearcoatRoughnessFactor": 0.10000000149011612
        },
        "KHR_materials_sheen": {
          "sheenColorFactor": [
            1,
            1,
            1
          ],
          "sheenRoughnessFactor": 0.5
        },
        "KHR_materials_specular": {
          "specularColorFactor": [
            1.600000023841858,
            1.600000023841858,
            1.600000023841858
          ]
        }
      }
    }
  ],
  "meshes": [
    {
      "primitives": [
        {
          "attributes": {
            "POSITION": 0,
            "NORMAL": 1,
            "TEXCOORD_0": 2
          },
          "mode": 4,
          "material": 0,
          "indices": 3
        }
      ]
    }
  ],
  "nodes": [
    {
      "name": "Scene",
      "children": [
        1
      ]
    },
    {
      "name": "geometry_0",
      "extras": {
        "name": "geometry_0"
      },
      "translation": [
        0,
        2.5815505981445312,
        0
      ],
      "rotation": [
        -0.016415372623521766,
        -0.8382012241769582,
        0.025268459673661984,
        0.544528005057281
      ],
      "scale": [
        0.929679219834037,
        1.0000000000067768,
        0.5605834751927147
      ],
      "mesh": 0
    }
  ],
  "scenes": [
    {
      "name": "AuxScene",
      "nodes": [
        0
      ]
    }
  ],
  "scene": 0,
  "extensionsUsed": [
    "KHR_materials_clearcoat",
    "KHR_materials_sheen",
    "KHR_materials_specular"
  ]
}